Coordinates
version=1
nRows=18
nColumns=22
inDegrees=yes

Units are S.I. units (second, meters, Newtons, ...)
If the header above contains a line with 'inDegrees', this indicates whether rotational values are in degrees (yes) or radians (no).

endheader
time	pelvis_tilt	pelvis_list	pelvis_rotation	pelvis_tx	pelvis_ty	pelvis_tz	hip_flexion_r	hip_adduction_r	hip_rotation_r	knee_angle_r	ankle_angle_r	subtalar_angle_r	hip_flexion_l	hip_adduction_l	hip_rotation_l	knee_angle_l	ankle_angle_l	subtalar_angle_l	lumbar_extension	lumbar_bending	lumbar_rotation
      1.35000000	     -2.91251688	      0.82372412	      1.12379151	     -0.90203702	      0.92395571	     -0.73961065	     30.86228472	     -5.20232963	     -4.59619937	    -48.80270812	      7.94267531	      3.74400294	      0.96460213	      3.06208773	     -8.69290136	    -17.50778101	     18.28350511	     -4.96912310	    -13.67150320	     -3.57680601	    -10.08269696
      1.36000000	     -2.96513976	      0.58254968	      0.96254444	     -0.89765342	      0.92357755	     -0.73893621	     31.20715115	     -4.75796122	     -4.93363573	    -47.14445603	      8.14897223	      4.03817202	      0.68413176	      2.76962105	     -8.84749001	    -17.45640323	     18.47511579	     -4.95594300	    -13.72581616	     -3.33258030	    -10.20677472
      1.37000000	     -3.00396432	      0.34999815	      0.79044958	     -0.89310457	      0.92316449	     -0.73820129	     31.48117005	     -4.32573942	     -5.29733876	    -45.33040013	      8.28514056	      4.25542067	      0.36840970	      2.48944224	     -8.97364851	    -17.39223077	     18.67274892	     -4.91171848	    -13.79023305	     -3.09826056	    -10.31936443
      1.38000000	     -3.04370133	      0.12632176	      0.62086399	     -0.88841841	      0.92266927	     -0.73740393	     31.70763948	     -3.90917645	     -5.69915073	    -43.39415956	      8.36535763	      4.35542201	      0.05721754	      2.21414271	     -9.09589163	    -17.35623575	     18.89228314	     -4.84189721	    -13.85073142	     -2.87566376	    -10.43278220
      1.39000000	     -3.08629682	     -0.08684639	      0.45471012	     -0.88359401	      0.92207876	     -0.73655074	     31.89546150	     -3.51077537	     -6.14175777	    -41.36624322	      8.36962858	      4.35158467	     -0.24606706	      1.94594057	     -9.20980687	    -17.35012770	     19.13537942	     -4.74658522	    -13.90512495	     -2.66468132	    -10.55837456
      1.40000000	     -3.12900330	     -0.28720114	      0.29507045	     -0.87863383	      0.92138888	     -0.73563727	     32.04812475	     -3.12964486	     -6.62324918	    -39.27484074	      8.29441704	      4.26284432	     -0.54166027	      1.68629866	     -9.31114305	    -17.37809423	     19.40246883	     -4.62199294	    -13.95579462	     -2.46650951	    -10.70207255
      1.41000000	     -3.15894054	     -0.47443584	      0.14426289	     -0.87353833	      0.92061995	     -0.73464904	     32.15339744	     -2.75903201	     -7.13583865	    -37.13748933	      8.16205401	      4.08570891	     -0.84673042	      1.43568161	     -9.38206709	    -17.43384859	     19.68148904	     -4.43930035	    -14.02027773	     -2.28664195	    -10.85476954
      1.42000000	     -3.25002816	     -0.65190403	      0.00573966	     -0.86833195	      0.91962736	     -0.73361099	     32.31342457	     -2.40223294	     -7.68819845	    -35.00357269	      7.93023602	      3.96250345	     -1.05250509	      1.18218635	     -9.47762718	    -17.57013422	     20.00001719	     -4.32666449	    -14.00660843	     -2.11312762	    -11.04187172
      1.43000000	     -3.29688755	     -0.81473835	     -0.11915476	     -0.86298118	      0.91860780	     -0.73249129	     32.39577673	     -2.04674166	     -8.24657512	    -32.85849316	      7.69131137	      3.76578899	     -1.31032191	      0.94059636	     -9.52034665	    -17.71802516	     20.32554889	     -4.12066099	    -14.04420843	     -1.95973553	    -11.24107277
      1.44000000	     -3.40542931	     -0.96685254	     -0.23657408	     -0.85750983	      0.91736526	     -0.73130809	     32.54264392	     -1.69361849	     -8.81301699	    -30.75515830	      7.37340585	      3.65544705	     -1.47796533	      0.69879300	     -9.57626300	    -17.93049760	     20.68096724	     -3.99083944	    -13.99923385	     -1.81291044	    -11.46724341
      1.45000000	     -3.49141074	     -1.10394857	     -0.33899432	     -0.85189930	      0.91604831	     -0.73005554	     32.65179415	     -1.34164296	     -9.35689356	    -28.69210180	      7.07615111	      3.53491668	     -1.66949019	      0.46494432	     -9.60204910	    -18.16465969	     21.05006231	     -3.80910093	    -13.97680632	     -1.68225732	    -11.71798023
      1.46000000	     -3.56347189	     -1.22660266	     -0.43119967	     -0.84614788	      0.91464986	     -0.72872798	     32.73237317	     -0.98414307	     -9.85174291	    -26.68103197	      6.81026927	      3.41165156	     -1.87422183	      0.24049639	     -9.59827721	    -18.42393499	     21.41303083	     -3.55339743	    -13.96461936	     -1.56667814	    -11.97737536
      1.47000000	     -3.67622583	     -1.33285012	     -0.51748379	     -0.84026835	      0.91306884	     -0.72731823	     32.86517469	     -0.63008210	    -10.29653284	    -24.77166922	      6.52669055	      3.34984395	     -2.02947497	      0.02163245	     -9.59969821	    -18.71496149	     21.79449665	     -3.36663597	    -13.89371046	     -1.46851823	    -12.24689873
      1.48000000	     -3.79552677	     -1.41468943	     -0.60553357	     -0.83423005	      0.91137049	     -0.72586809	     33.00587206	     -0.28647391	    -10.65380856	    -22.97215428	      6.27387542	      3.30809338	     -2.18725880	     -0.17078721	     -9.58014539	    -19.01496895	     22.17015031	     -3.19798473	    -13.80052279	     -1.38671914	    -12.51815228
      1.49000000	     -3.89618386	     -1.48250899	     -0.68174188	     -0.82803103	      0.90960727	     -0.72434949	     33.12714010	      0.04533605	    -10.95586120	    -21.30711841	      6.05603633	      3.26537749	     -2.37705813	     -0.35849096	     -9.56613783	    -19.31508026	     22.54336441	     -2.98960219	    -13.71999995	     -1.31867857	    -12.80935497
      1.50000000	     -3.96352087	     -1.53047494	     -0.75460533	     -0.82164909	      0.90781086	     -0.72278378	     33.21350375	      0.35662480	    -11.19491835	    -19.80012573	      5.88950500	      3.20103104	     -2.62010780	     -0.52764120	     -9.53834490	    -19.61166270	     22.87403071	     -2.67684426	    -13.66560401	     -1.26601861	    -13.08030969
      1.51000000	     -4.06283936	     -1.55222402	     -0.83241998	     -0.81510534	      0.90587487	     -0.72117508	     33.35734931	      0.63493386	    -11.37695646	    -18.50809128	      5.69800133	      3.14772264	     -2.83922566	     -0.67117708	     -9.51703585	    -19.91487534	     23.21821955	     -2.52670225	    -13.55585662	     -1.23365025	    -13.34050451
      1.52000000	     -4.12206975	     -1.56374409	     -0.90270914	     -0.80834872	      0.90394504	     -0.71953701	     33.46625226	      0.88379524	    -11.55551728	    -17.43898813	      5.54644271	      3.05001663	     -3.12579157	     -0.80622713	     -9.49384703	    -20.20213701	     23.51988124	     -2.32298076	    -13.47690389	     -1.20320716	    -13.58822597
